<svg xmlns="http://www.w3.org/2000/svg" width="48" height="54"><g fill="none" fill-rule="evenodd"><path d="M4 0h48v54H4z"/><path d="M24.685 40.122a.587.587 0 0 1 .063-.28.555.555 0 0 1 .208-.206.574.574 0 0 0-.21-.186.591.591 0 0 0-.28-.071.491.491 0 0 0-.108.013 1.318 1.318 0 0 0-.138.042l-.138.049a.2.2 0 0 1-.064.017.559.559 0 0 1-.183-.057.637.637 0 0 0-.231-.055.562.562 0 0 0-.446.214.788.788 0 0 0-.134.242.936.936 0 0 0-.048.3 1.679 1.679 0 0 0 .157.658c.06.124.134.24.223.344.03.037.063.07.1.1a.4.4 0 0 0 .09.054.28.28 0 0 0 .088.015.358.358 0 0 0 .083-.015c.032-.012.069-.022.109-.035.04-.013.078-.025.118-.036a.361.361 0 0 1 .208-.003c.037.013.074.023.112.036l.109.034c.03.01.06.014.09.015a.227.227 0 0 0 .111-.026.581.581 0 0 0 .107-.073c.017-.019.043-.047.075-.085.032-.038.062-.085.1-.136.038-.051.062-.107.093-.166.03-.061.055-.124.076-.189a.547.547 0 0 1-.248-.211.553.553 0 0 1-.092-.303zm-.485-.811a.593.593 0 0 0 .298-.497v-.027a.082.082 0 0 0 0-.026.472.472 0 0 0-.191.053.638.638 0 0 0-.16.125.675.675 0 0 0-.11.173.466.466 0 0 0-.042.189v.037c0 .01.013.013.037.013a.347.347 0 0 0 .168-.04z"/><path fill="#1D1D1F" fill-rule="nonzero" d="M20.11 47.119a2.807 2.807 0 0 1-2.927 2.187l-.07.005a.344.344 0 0 0-.345.345c.002.15.1.28.243.323a.156.156 0 0 0 .042.016V50h13.9v-.005a.118.118 0 0 0 .042-.016.339.339 0 0 0 .143-.567.345.345 0 0 0-.245-.101l-.069-.005a2.809 2.809 0 0 1-2.928-2.187l-.784-3.619h-6.22l-.782 3.619zM46.469 10H1.531c-.8.101-1.43.731-1.531 1.531v29.938A1.81 1.81 0 0 0 1.572 43h44.9A1.766 1.766 0 0 0 48 41.469V11.531A1.766 1.766 0 0 0 46.469 10zM24.946 40.829a2.289 2.289 0 0 1-.093.166.959.959 0 0 1-.1.136c-.034.036-.058.066-.075.085a.581.581 0 0 1-.107.073.227.227 0 0 1-.111.026.336.336 0 0 1-.09-.015l-.109-.034c-.038-.013-.075-.023-.112-.036a.361.361 0 0 0-.208.003c-.04.011-.079.023-.118.036-.039.013-.077.023-.109.035a.358.358 0 0 1-.083.015.28.28 0 0 1-.088-.015.4.4 0 0 1-.09-.054.664.664 0 0 1-.1-.1 1.614 1.614 0 0 1-.307-.56 1.679 1.679 0 0 1-.046-.223 1.278 1.278 0 0 1-.021-.219c0-.102.016-.203.048-.3a.788.788 0 0 1 .134-.242.562.562 0 0 1 .446-.214c.08.004.158.022.231.055.057.03.12.049.183.057a.2.2 0 0 0 .064-.017l.138-.049c.045-.017.091-.03.138-.042a.491.491 0 0 1 .108-.013c.098 0 .194.025.28.071a.574.574 0 0 1 .21.186.555.555 0 0 0-.208.206.587.587 0 0 0-.063.28.553.553 0 0 0 .089.307c.06.094.146.167.248.211a1.621 1.621 0 0 1-.079.185zM24 39.306c0-.065.015-.13.042-.189a.675.675 0 0 1 .11-.173c.046-.05.1-.092.16-.125a.472.472 0 0 1 .191-.053.082.082 0 0 1 0 .026v.027a.593.593 0 0 1-.298.497.347.347 0 0 1-.171.045c-.024 0-.036 0-.037-.013l.003-.042zM46 37H2V12h44v25z"/></g></svg>