<svg enable-background="new 0 0 60 54" height="54" viewBox="0 0 60 54" width="60" xmlns="http://www.w3.org/2000/svg"><path clip-rule="evenodd" d="m0 0h60v54h-60z" fill="none"/><path d="m31 2h-28c-1.6569 0-3 1.3431-3 3v12.8969 29.1031c0 1.6569 1.3431 3 3 3h5.8654 16.2694 5.8652c1.6569 0 3-1.3431 3-3v-29.1031-12.8969c0-1.6569-1.3431-3-3-3zm1 45c0 .5523-.4478 1-1 1h-7.1353-13.7294-7.1353c-.5522 0-1-.4477-1-1v-29.1031-12.8969c0-.5523.4478-1 1-1h28c.5522 0 1 .4477 1 1v12.8969zm7.3-30c-1.2703 0-2.3 1.0308-2.3 2.3023v28.3953c0 1.2716 1.0297 2.3024 2.3 2.3024h18.4c1.2703 0 2.3-1.0308 2.3-2.3023v-28.3954c0-1.2715-1.0297-2.3023-2.3-2.3023zm18.7 30.2564c0 .4107-.3272.7436-.7308.7436h-17.5384c-.4036 0-.7308-.3329-.7308-.7436v-27.5128c0-.4107.3272-.7436.7308-.7436h17.5385c.4035 0 .7307.3329.7307.7436z" fill="#1d1d1f"/></svg>