<svg xmlns="http://www.w3.org/2000/svg" viewBox="0 0 37 54"><title>iphone12.pro_elevated_dark</title><rect width="37" height="54" fill="none"/><path d="M9.24,7.22877h2a.24975.24975,0,1,1,0,.4995h-2a.24975.24975,0,1,1,0-.4995Zm3.08-.07992a.343.343,0,1,0,.01,0ZM3.19,49.001A2.18891,2.18891,0,0,1,1,46.81319V9.18681A2.18891,2.18891,0,0,1,3.19,6.999H5a.49976.49976,0,0,1,.5.4995V7.998a.9995.9995,0,0,0,1,.999H13V6H3.19A3.1984,3.1984,0,0,0,0,9.18681V46.81319A3.1984,3.1984,0,0,0,3.19,50H14.38a3.99691,3.99691,0,0,1-.83-.999ZM36,47.02253a2.08094,2.08094,0,0,1-2.13636,1.985H17.13636A2.08094,2.08094,0,0,1,15,47.02253V4.97747a2.08094,2.08094,0,0,1,2.13636-1.985H19.75a.51.51,0,0,1,.52273.49624V3.985a1.02,1.02,0,0,0,1.04545.99249h8.36364A1.02,1.02,0,0,0,30.72727,3.985V3.48873A.51.51,0,0,1,31.25,2.99249h2.61364A2.08094,2.08094,0,0,1,36,4.97747ZM24.47778,3.22077h2.04444a.24823.24823,0,1,1,0,.49624H24.47778a.24823.24823,0,1,1,0-.49624Zm3.14844-.07941a.32766.32766,0,1,1-.33733.32753A.33255.33255,0,0,1,27.62622,3.14136ZM33.86364,2H17.13636A3.06,3.06,0,0,0,14,4.97747V47.02253A3.06,3.06,0,0,0,17.13636,50H33.86364A3.06,3.06,0,0,0,37,47.02253V4.97747A3.06,3.06,0,0,0,33.86364,2Z" fill="#f5f5f7"/></svg>