<svg xmlns="http://www.w3.org/2000/svg" width="70" height="54"><g fill="none" fill-rule="evenodd"><path d="M0 0h70v54H0z"/><path fill="#1D1D1F" fill-rule="nonzero" d="M70 12.5v29c0 .8-.7 1.5-1.5 1.5H63v-6h6V12h-6v-1h5.5c.8 0 1.5.7 1.5 1.5zm-48 0V25h1V12h40v-1H23.5c-.8 0-1.5.7-1.5 1.5zM43 47h3c.6 0 1 .4 1 1 0 .2 0 .3-.1.5-.2.3-.533.524-.9.743-.5.3-1.1.557-1.7.757H52v-6.5h-9V47zm0-10v6h20v-6H43zm-3 11V28H7l-1 .013V48h34zM6.778 49.897c-.51-.015-.99-.078-1.676-.161-1.597-.17-3.154-.516-4.554-1.316-.147-.1-.448-.307-.548-.407h4v-20.9c0-.687.796-1.113 1.5-1.1H7L40.4 26h.3c.78.012 1.3.807 1.3 1.583L41.9 48h4c-.1.1-.2.2-.4.3-1.4.8-2.864 1.219-4.462 1.392-.485.074-1.26.134-2.059.181l-.436.024C37.238 49.967 36 50 36 50H9.736A47.829 47.829 0 0 1 7 49.9z"/></g></svg>