<svg id="Light" xmlns="http://www.w3.org/2000/svg" viewBox="0 0 51 54"><defs><style>.cls-1{fill:#1d1d1f;}</style></defs><title>watch_nav_accessories_large_</title><g id="watch_accessories" data-name="watch accessories"><path id="icon" class="cls-1" d="M41.85,26.08c0-.78,0-1.44,0-1.84,0-4.67-7.33-8.32-16.43-8.32S9,19.57,9,24.24v1.91C4.2,28.64.5,32.27.5,36.32c0,7.51,11.19,13.6,25,13.6s25-6.09,25-13.6C50.5,32.24,46.73,28.57,41.85,26.08ZM25.56,17c8.36,0,15.14,3.26,15.14,7.28a4.77,4.77,0,0,1-1.88,3.52,9.76,9.76,0,0,1-1,.73l-.22.15c-.33.2-.67.4-1,.58a1.4,1.4,0,0,1-.17.09l-.91.45v-.23A2.54,2.54,0,0,0,33,26.92H22.5v-1h-4v1h-.45a2.54,2.54,0,0,0-2.55,2.61v.2c-.28-.13-.63-.27-.93-.42-.05,0,0-.06-.1-.09l-.25-.13-.74-.45-.21-.15a9.44,9.44,0,0,1-1-.73,4.73,4.73,0,0,1-1.88-3.52C10.42,20.22,17.2,17,25.56,17ZM34.5,29.53v9.41c0,.86-.67,2-1.55,2H18.05c-.88,0-1.55-1.12-1.55-2V29.53a1.58,1.58,0,0,1,1.55-1.61H33A1.58,1.58,0,0,1,34.5,29.53Zm-9,19C12.73,48.56,1.94,43,1.94,36.32,1.94,33,4.38,29.88,9,27.65v5c0,2.81,2.29,5.29,6.49,6.79a2.94,2.94,0,0,0,2.55,2.52H33a2.92,2.92,0,0,0,2.55-2.57c4.25-1.5,6.48-4,6.48-6.74,0-.9,0-3.06-.1-5,4.7,2.24,7.18,5.35,7.18,8.73C49.06,43,38.27,48.56,25.5,48.56Z"/></g></svg>